<?xml version="1.0" encoding="UTF-8"?> <svg xmlns="http://www.w3.org/2000/svg" viewBox="0 0 273.79 70"><title>wpviking-agencylogo</title><g id="Layer_2" data-name="Layer 2"><g id="Layer_1-2" data-name="Layer 1"><g id="Layer_1-2-2" data-name="Layer 1-2"><g id="outline3"><path d="M51.08,50.08c0-.23-1.17-5.13-7.14-8.36a53.82,53.82,0,0,0-1.06-10c.42-.41,1-.88,1.63-1.39,2.53-2,6-4.83,6.61-9.41a29.47,29.47,0,0,0-5-20.21A1.51,1.51,0,0,0,43.4,2a12.9,12.9,0,0,1,0,8.57c-.55,1.47-1.17,3.13-2.86,4a5.33,5.33,0,0,1-3.58.34V10.5l3.86-1.61a1.51,1.51,0,0,0,0-2.78L26.48.12a1.55,1.55,0,0,0-1.16,0L11,6.11a1.52,1.52,0,0,0-.8,2,1.49,1.49,0,0,0,.8.8l3.87,1.62v4.23a5.55,5.55,0,0,1-4-.21,4.52,4.52,0,0,1-1.85-1.75,11.09,11.09,0,0,1-1-2.22A12.92,12.92,0,0,1,7.94,2,1.51,1.51,0,0,0,5.28.68a29.44,29.44,0,0,0-5,20.2c.6,4.6,4.07,7.38,6.6,9.42.62.5,1.21,1,1.64,1.38a53.84,53.84,0,0,0-1.07,10C1.43,45,.3,49.88.26,50.1h0A1.52,1.52,0,0,0,1.24,52a1.55,1.55,0,0,0,1,0,18.39,18.39,0,0,1,7.45-1.21A56.42,56.42,0,0,0,11,65.28a1.51,1.51,0,0,0,1.81,1.14,1.54,1.54,0,0,0,.84-.53,21.79,21.79,0,0,1,3.36-3.36A20.54,20.54,0,0,1,19,61.14a32.61,32.61,0,0,0,1.81,3.4,33.12,33.12,0,0,0,3.75,5h0l0,0,.06.06h0l0,0,.08.06,0,0,.07,0,.06,0,.08,0,.05,0,.09,0,.05,0,.09,0h.05l.11,0h.37l.11,0h0l.1,0,.05,0,.09,0,.05,0,.08,0,.06,0,.07,0,.05,0,.07-.06,0,0h0l.06-.07,0,0h0a33.81,33.81,0,0,0,3.75-5,37.08,37.08,0,0,0,1.83-3.4,22.09,22.09,0,0,1,1.94,1.39,22.78,22.78,0,0,1,3.36,3.37,1.52,1.52,0,0,0,2.65-.62,56.56,56.56,0,0,0,1.23-8.6,58,58,0,0,0,.07-5.9,19,19,0,0,1,3,.12A18.43,18.43,0,0,1,49.06,52,1.51,1.51,0,0,0,51,51.14a1.46,1.46,0,0,0,0-1ZM41.91,17.22c2.73-1.37,3.69-3.92,4.32-5.6a14.17,14.17,0,0,0,.7-2.55,24.93,24.93,0,0,1,1.19,11.4A7.65,7.65,0,0,1,47.27,23a3.19,3.19,0,0,1-5.78-.45v0A20.64,20.64,0,0,0,39.09,18,7.71,7.71,0,0,0,41.91,17.22ZM35.7,34.13l-.08,0a8.5,8.5,0,0,0-5.17-.55.21.21,0,0,1,0-.07l.09-.06a8.5,8.5,0,0,1,4.8-1.65,13.75,13.75,0,0,1,4.52.4,50.68,50.68,0,0,1,1,8.24,18.64,18.64,0,0,0-9.8-.47,6.59,6.59,0,0,0-.43-2.06,6.84,6.84,0,0,1-.35-1.17,5.36,5.36,0,0,1,4.07.14l.09,0a1.51,1.51,0,0,0,1.29-2.71Zm-9.8-31L36.34,7.5,25.9,11.85,15.46,7.5ZM34,11.76v3.32a1.28,1.28,0,0,0-.11.2l0,.08L25.9,19l-8.08-3.67V11.76l7.5,3.11a1.46,1.46,0,0,0,1.16,0Zm-19.9,9.13a18.28,18.28,0,0,1,2.19-3l9,4.13a1.54,1.54,0,0,0,1.26,0l8.75-4a18,18,0,0,1,2,2.78A1,1,0,0,1,37,22.23h0a1.16,1.16,0,0,1-.51.15h0a20.77,20.77,0,0,0-10.76,3.28,20.71,20.71,0,0,0-10.74-3.28h0a1,1,0,0,1-1-1,1,1,0,0,1,.13-.49Zm.78,4.51h0a17.73,17.73,0,0,1,9.9,3.3,1.53,1.53,0,0,0,.88.28h0a1.53,1.53,0,0,0,.87-.28,17.81,17.81,0,0,1,9.9-3.3h0a3.23,3.23,0,0,1,3.25,3c0,.23,0,.45,0,.68a16.9,16.9,0,0,0-4.65-.31,11.7,11.7,0,0,0-6.23,2.14l-.45.31h0l-.08.05,0,0-.07.06-.05.05s0,0-.05.05l0,.06,0,.05,0,.07,0,0a.56.56,0,0,1-.05.08v0l0,.06h0c-1.54,3.17-.18,6.76,0,7.15a2.88,2.88,0,0,1,0,2.2,2.73,2.73,0,0,1-2.17.71c-.77,0-1.77-.13-2.16-.71a2.8,2.8,0,0,1,0-2.2c.17-.42,1.53-4,0-7.15h0l0-.06,0,0,0-.08,0,0s0,0,0-.07l-.05-.05-.05-.06,0-.05-.05-.05-.06-.06a.1.1,0,0,1,0,0l-.07,0h0l-.44-.31a11.65,11.65,0,0,0-6.23-2.14,16.82,16.82,0,0,0-4.59.28c0-.24,0-.49,0-.73a3.17,3.17,0,0,1,3.16-2.9Zm0,10.71a1.51,1.51,0,0,0,2,.77l.08,0A5.39,5.39,0,0,1,21,36.7a6.84,6.84,0,0,1-.35,1.17,6.32,6.32,0,0,0-.43,2.06,18.64,18.64,0,0,0-9.8.45,52.38,52.38,0,0,1,1-8.17l0-.07a13.93,13.93,0,0,1,4.5-.4,8.58,8.58,0,0,1,4.79,1.65l.09.06,0,.07a8.47,8.47,0,0,0-5.16.56l-.09,0a1.5,1.5,0,0,0-.77,2h0ZM4.08,23.05a7.4,7.4,0,0,1-.85-2.58A24.93,24.93,0,0,1,4.41,9.07a15,15,0,0,0,.7,2.55c.63,1.69,1.58,4.23,4.32,5.6h0a7.47,7.47,0,0,0,2.89.8,20.73,20.73,0,0,0-2.39,4.51.11.11,0,0,1,0,0,3.23,3.23,0,0,1-5.84.47ZM17,50.35a17.87,17.87,0,0,0,.83,7.95,26.25,26.25,0,0,0-2.67,1.89h0A1.27,1.27,0,0,1,13.35,60a1.33,1.33,0,0,1-.27-.65c-.12-1-.21-1.93-.27-2.89a54.35,54.35,0,0,1,0-7,1.5,1.5,0,0,0-1.32-1.58,21.13,21.13,0,0,0-5.15,0h0a.73.73,0,0,1-.8-.64.74.74,0,0,1,.19-.57,14.27,14.27,0,0,1,5-3.17,15.54,15.54,0,0,1,9-.63A18.81,18.81,0,0,0,17,50.35Zm13.29,8,0,0A29.86,29.86,0,0,1,28,63l0,0a2.68,2.68,0,0,1-3.69.87A2.5,2.5,0,0,1,23.4,63l0,0a30.8,30.8,0,0,1-2.28-4.56v0A15,15,0,0,1,20,50.73a16.21,16.21,0,0,1,.74-3.15,4.05,4.05,0,0,1,4.17-2.71q.38,0,.78,0a6.36,6.36,0,0,0,.77,0,4,4,0,0,1,4.15,2.63,15.48,15.48,0,0,1,.77,3.21,14.93,14.93,0,0,1-1.11,7.67ZM45,47.9h0a21,21,0,0,0-5.13,0,1.5,1.5,0,0,0-1.32,1.59,54.35,54.35,0,0,1,0,7c-.07,1-.15,1.92-.27,2.88a1.25,1.25,0,0,1-1.4,1.11h0a1.21,1.21,0,0,1-.65-.27h0a24.77,24.77,0,0,0-2.67-1.89,17.73,17.73,0,0,0,.83-7.95,18.86,18.86,0,0,0-2.65-7.47,15.58,15.58,0,0,1,9,.63,14.51,14.51,0,0,1,5,3.17.72.72,0,0,1,0,1,.75.75,0,0,1-.57.19Z"></path><path d="M28.5,49.79h0a6.83,6.83,0,0,1-5.6,0h0a1.24,1.24,0,0,1-.69-1.53,1.2,1.2,0,0,1,1.52-.78h0l.1,0,.07,0a4.43,4.43,0,0,0,3.6,0l.07,0a1.22,1.22,0,0,1,1.62.62A1.25,1.25,0,0,1,28.5,49.79Z"></path></g></g><path d="M92.26,38.42H88.81l-7.07-22.6-7.1,22.6H71.23L62.67,10.59h3.41L73,33.4l7.1-22.81h3.2L90.43,33.4l6.94-22.81h3.44Z"></path><path d="M117.31,10.59a10.09,10.09,0,0,1,7,2.38A8.05,8.05,0,0,1,127,19.23a8,8,0,0,1-2.64,6.25,10.09,10.09,0,0,1-7,2.39h-8.85V38.42h-3.28V10.59Zm0,14.33a6.76,6.76,0,0,0,4.7-1.58,5.28,5.28,0,0,0,1.74-4.11A5.32,5.32,0,0,0,122,15.11a6.76,6.76,0,0,0-4.7-1.57h-8.85V24.92Z"></path><path d="M147.31,38.42H140.7L128.86,10.59h7.56L144,29l7.6-18.44h7.56Z"></path><path d="M161.85,38.42V10.59h6.86V38.42Z"></path><path d="M190.94,38.42,181.84,28h-1.46V38.42h-6.85V10.59h6.85V21.64h1l9.47-11h8.23l-11.84,14,12.67,13.87Z"></path><path d="M202.2,38.42V10.59h6.85V38.42Z"></path><path d="M240.47,38.42h-5.66L220.73,22.3V38.42h-6.86V10.59h5.7l14.08,16.62V10.59h6.82Z"></path><path d="M273.62,22a20.69,20.69,0,0,1,.17,2.54,14,14,0,0,1-14.42,14.5,14.76,14.76,0,0,1-10.66-4.2,13.85,13.85,0,0,1-4.34-10.35,13.88,13.88,0,0,1,4.3-10.32A14.53,14.53,0,0,1,259.25,10a16.38,16.38,0,0,1,8.47,2.18,11.37,11.37,0,0,1,5.11,6.17l-6.6,1.92q-2-4-7-4a7.63,7.63,0,0,0-5.7,2.36,8.18,8.18,0,0,0-2.28,5.9,8.12,8.12,0,0,0,2.35,5.93,7.84,7.84,0,0,0,5.83,2.38,8,8,0,0,0,4.64-1.32,7.15,7.15,0,0,0,2.72-3.66h-8.52V22Z"></path><path d="M94.89,59.83l-1.21-2.75H88l-1.21,2.75H85.39L90.24,49h1.18l4.85,10.84Zm-4-9.25-2.36,5.35h4.7Z"></path><path d="M127.49,53.88c0,.14,0,.32,0,.55a5.58,5.58,0,0,1-1.53,4,5.16,5.16,0,0,1-3.9,1.61,5.63,5.63,0,1,1,0-11.26,5.9,5.9,0,0,1,3.16.84,4.57,4.57,0,0,1,2,2.3l-1.15.41a4,4,0,0,0-1.6-1.75A4.6,4.6,0,0,0,122,50,4.09,4.09,0,0,0,119,51.27a4.58,4.58,0,0,0,0,6.29,4.25,4.25,0,0,0,3.12,1.28A4,4,0,0,0,125,57.77,4.28,4.28,0,0,0,126.28,55h-4.79V53.88Z"></path><path d="M157.13,59.83h-7.91V49h7.89v1.15H150.5v3.67h6.14V55H150.5v3.7h6.63Z"></path><path d="M188.39,59.83h-1.1l-7.09-8.6v8.6h-1.27V49H180l7.08,8.7V49h1.28Z"></path><path d="M218.18,58.12a3.81,3.81,0,0,0,1.46-2l1.23.29A5,5,0,0,1,219,59.05a5.5,5.5,0,0,1-3.27,1,5.63,5.63,0,1,1,0-11.26,5.56,5.56,0,0,1,3.26,1,4.86,4.86,0,0,1,1.9,2.61l-1.23.36a3.68,3.68,0,0,0-1.46-2,4.43,4.43,0,0,0-5.55.55,4.59,4.59,0,0,0,0,6.3,4.16,4.16,0,0,0,3.08,1.28A4.25,4.25,0,0,0,218.18,58.12Z"></path><path d="M246.56,59.83h-1.28V56l-4.48-7h1.43l3.68,5.78L249.6,49h1.47l-4.51,7Z"></path></g></g></svg> 