<?xml version="1.0" encoding="UTF-8"?> <svg xmlns="http://www.w3.org/2000/svg" viewBox="0 0 49.74 60"> <defs> <style>.cls-1{fill:#fff;}</style> </defs> <title>rb-fitness-logo-feher</title> <g id="Layer_2" data-name="Layer 2"> <g id="Layer_1-2" data-name="Layer 1"> <path class="cls-1" d="M45,19.79A15.39,15.39,0,0,0,33.66,15c-.71,0-1.76.06-3.14.19V28.14a5.51,5.51,0,0,1,3-1.13,4.08,4.08,0,0,1,3.07,1.3,4.45,4.45,0,0,1,1.26,3.22,4.26,4.26,0,0,1-1.34,3.16A4.47,4.47,0,0,1,33.22,36q-4.48,0-4.49-6.25V4.08H17V15.3A23.57,23.57,0,0,0,13.6,15a12.76,12.76,0,0,0-9.89,4C1.24,21.71,0,25.31,0,29.84V47H11.75V32.1c0-3.27,1.06-4.9,3.2-4.9a4.42,4.42,0,0,1,2,.58v2.4q0,7.2,3.76,11.72A15.51,15.51,0,0,0,26.27,46a16.17,16.17,0,0,0,6.86,1.54,16.22,16.22,0,0,0,11.81-4.71,15.6,15.6,0,0,0,4.8-11.59A15.73,15.73,0,0,0,45,19.79Z"></path> <rect class="cls-1" x="16.99" width="11.75" height="3.46"></rect> <path class="cls-1" d="M4.57,53.67v3.09H3.43v3H0V52.61a4.67,4.67,0,0,1,1.25-3.34,4.15,4.15,0,0,1,3.14-1.33,4.26,4.26,0,0,1,3.49,1.81l-2.82,2a.84.84,0,0,0-.83-.66c-.53,0-.8.37-.8,1.1v1.43Z"></path> <path class="cls-1" d="M11.5,51.34v8.43H8.34V51.34Z"></path> <path class="cls-1" d="M16.17,48.23v3.23h1.42V54.8H16.17a2.27,2.27,0,0,0,.32,1.39,1.47,1.47,0,0,0,1.16.38v3.32h-.36a4.35,4.35,0,0,1-2-.5,4.05,4.05,0,0,1-1.52-1.35A5.09,5.09,0,0,1,13,55.16V48.23Z"></path> <path class="cls-1" d="M26.66,59.77H23.5V55q0-.72-.6-.72c-.39,0-.59.24-.59.72v4.76H19.15v-4.7a3.85,3.85,0,0,1,1.09-2.78,3.81,3.81,0,0,1,5.57.19,4.3,4.3,0,0,1,.85,2.84Z"></path> <path class="cls-1" d="M36.79,56.07H32a2.13,2.13,0,0,1-.11-.67,2.39,2.39,0,0,1,.15-.83h1.61a1,1,0,0,0-1.06-.94,1.12,1.12,0,0,0-1,.51,2.08,2.08,0,0,0-.38,1.29,2.22,2.22,0,0,0,.36,1.32,1.12,1.12,0,0,0,1,.51,1.27,1.27,0,0,0,.91-.47L35.27,59a4.42,4.42,0,0,1-2.8,1,4.31,4.31,0,0,1-3.15-1.26,4.44,4.44,0,0,1,0-6.25,4.34,4.34,0,0,1,3.17-1.27,4.24,4.24,0,0,1,4.32,4.32C36.82,55.6,36.81,55.8,36.79,56.07Z"></path> <path class="cls-1" d="M43.39,51.46v3.33a1.31,1.31,0,0,0-.92.25,1.68,1.68,0,0,0-.32,1,4.18,4.18,0,0,1-1.89,3.45,5,5,0,0,1-2.52.52H37.3V56.65h.14a1.54,1.54,0,0,0,1.09-.31,1.69,1.69,0,0,0,.37-1.12,7.7,7.7,0,0,1,.25-1.81,2.58,2.58,0,0,1,.7-1,3.52,3.52,0,0,1,2.58-.91Z"></path> <path class="cls-1" d="M49.7,51.46v3.33a1.33,1.33,0,0,0-.92.25,1.68,1.68,0,0,0-.31,1,4.17,4.17,0,0,1-1.9,3.45,5,5,0,0,1-2.52.52h-.44V56.65h.15a1.52,1.52,0,0,0,1.08-.31,1.69,1.69,0,0,0,.38-1.12,7.31,7.31,0,0,1,.24-1.81,2.62,2.62,0,0,1,.71-1,3.51,3.51,0,0,1,2.57-.91Z"></path> <path class="cls-1" d="M9.92,47.58A1.54,1.54,0,0,1,11,48a1.43,1.43,0,0,1,.47,1.07,1.48,1.48,0,0,1-.44,1.09,1.61,1.61,0,0,1-1.14.42,1.61,1.61,0,0,1-1.14-.42,1.51,1.51,0,0,1,0-2.16A1.54,1.54,0,0,1,9.92,47.58Z"></path> </g> </g> </svg> 