<?xml version="1.0" encoding="UTF-8"?> <svg xmlns="http://www.w3.org/2000/svg" viewBox="0 0 332.17 60"> <defs> <style>.cls-1{fill:#321f0f;}.cls-2{fill:#7f7f7f;}</style> </defs> <title>rb-fitness-logo</title> <g id="Layer_2" data-name="Layer 2"> <g id="Layer_1-2" data-name="Layer 1"> <path class="cls-1" d="M45,19.79A15.39,15.39,0,0,0,33.66,15c-.71,0-1.76.06-3.14.19V28.14a5.51,5.51,0,0,1,3-1.13,4.08,4.08,0,0,1,3.07,1.3,4.45,4.45,0,0,1,1.26,3.22,4.26,4.26,0,0,1-1.34,3.16A4.47,4.47,0,0,1,33.22,36q-4.48,0-4.49-6.25V4.08H17V15.3A23.57,23.57,0,0,0,13.6,15a12.76,12.76,0,0,0-9.89,4C1.24,21.71,0,25.31,0,29.84V47H11.75V32.1c0-3.27,1.06-4.9,3.2-4.9a4.42,4.42,0,0,1,2,.58v2.4q0,7.2,3.76,11.72A15.51,15.51,0,0,0,26.27,46a16.17,16.17,0,0,0,6.86,1.54,16.22,16.22,0,0,0,11.81-4.71,15.6,15.6,0,0,0,4.8-11.59A15.73,15.73,0,0,0,45,19.79Z"></path> <rect class="cls-2" x="16.99" width="11.75" height="3.46"></rect> <path class="cls-1" d="M4.57,53.67v3.09H3.43v3H0V52.61a4.67,4.67,0,0,1,1.25-3.34,4.15,4.15,0,0,1,3.14-1.33,4.26,4.26,0,0,1,3.49,1.81l-2.82,2a.84.84,0,0,0-.83-.66c-.53,0-.8.37-.8,1.1v1.43Z"></path> <path class="cls-1" d="M11.5,51.34v8.43H8.34V51.34Z"></path> <path class="cls-1" d="M16.17,48.23v3.23h1.42V54.8H16.17a2.27,2.27,0,0,0,.32,1.39,1.47,1.47,0,0,0,1.16.38v3.32h-.36a4.35,4.35,0,0,1-2-.5,4.05,4.05,0,0,1-1.52-1.35A5.09,5.09,0,0,1,13,55.16V48.23Z"></path> <path class="cls-1" d="M26.66,59.77H23.5V55q0-.72-.6-.72c-.39,0-.59.24-.59.72v4.76H19.15v-4.7a3.85,3.85,0,0,1,1.09-2.78,3.81,3.81,0,0,1,5.57.19,4.3,4.3,0,0,1,.85,2.84Z"></path> <path class="cls-1" d="M36.79,56.07H32a2.13,2.13,0,0,1-.11-.67,2.39,2.39,0,0,1,.15-.83h1.61a1,1,0,0,0-1.06-.94,1.12,1.12,0,0,0-1,.51,2.08,2.08,0,0,0-.38,1.29,2.22,2.22,0,0,0,.36,1.32,1.12,1.12,0,0,0,1,.51,1.27,1.27,0,0,0,.91-.47L35.27,59a4.42,4.42,0,0,1-2.8,1,4.31,4.31,0,0,1-3.15-1.26,4.44,4.44,0,0,1,0-6.25,4.34,4.34,0,0,1,3.17-1.27,4.24,4.24,0,0,1,4.32,4.32C36.82,55.6,36.81,55.8,36.79,56.07Z"></path> <path class="cls-1" d="M43.39,51.46v3.33a1.31,1.31,0,0,0-.92.25,1.68,1.68,0,0,0-.32,1,4.18,4.18,0,0,1-1.89,3.45,5,5,0,0,1-2.52.52H37.3V56.65h.14a1.54,1.54,0,0,0,1.09-.31,1.69,1.69,0,0,0,.37-1.12,7.7,7.7,0,0,1,.25-1.81,2.58,2.58,0,0,1,.7-1,3.52,3.52,0,0,1,2.58-.91Z"></path> <path class="cls-1" d="M49.7,51.46v3.33a1.33,1.33,0,0,0-.92.25,1.68,1.68,0,0,0-.31,1,4.17,4.17,0,0,1-1.9,3.45,5,5,0,0,1-2.52.52h-.44V56.65h.15a1.52,1.52,0,0,0,1.08-.31,1.69,1.69,0,0,0,.38-1.12,7.31,7.31,0,0,1,.24-1.81,2.62,2.62,0,0,1,.71-1,3.51,3.51,0,0,1,2.57-.91Z"></path> <path class="cls-2" d="M9.92,47.58A1.54,1.54,0,0,1,11,48a1.43,1.43,0,0,1,.47,1.07,1.48,1.48,0,0,1-.44,1.09,1.61,1.61,0,0,1-1.14.42,1.61,1.61,0,0,1-1.14-.42,1.51,1.51,0,0,1,0-2.16A1.54,1.54,0,0,1,9.92,47.58Z"></path> <path class="cls-1" d="M68.59,20.38l-1.11,4.49H64.7l1.91-4.49Zm4.21,0-1.14,4.49H68.91l1.92-4.49Z"></path> <path class="cls-1" d="M86.29,35.24H82.73L81.7,32H76.54l-1,3.23H72l5.29-14.52h3.87ZM81,29.5l-1.56-4.88a6.88,6.88,0,0,1-.24-1.3h-.08a6.25,6.25,0,0,1-.25,1.26L77.24,29.5Z"></path> <path class="cls-1" d="M103.46,35.24h-3.19V29.35c0-1.52-.55-2.28-1.66-2.28a1.69,1.69,0,0,0-1.38.64,2.44,2.44,0,0,0-.52,1.62v5.91h-3.2V19.89h3.2v6.52h0a3.63,3.63,0,0,1,3.19-1.79c2.34,0,3.52,1.42,3.52,4.25Z"></path> <path class="cls-1" d="M115.3,31h-6.76c.11,1.5,1,2.25,2.84,2.25a5.58,5.58,0,0,0,3-.81v2.31a7.94,7.94,0,0,1-3.74.77,4.83,4.83,0,0,1-5.28-5.27,5.54,5.54,0,0,1,1.5-4.09,5,5,0,0,1,3.68-1.51A4.54,4.54,0,0,1,114.06,26a5.14,5.14,0,0,1,1.24,3.65Zm-3-2q0-2.22-1.8-2.22a1.74,1.74,0,0,0-1.33.63,3,3,0,0,0-.68,1.59Z"></path> <path class="cls-1" d="M120.4,35.24h-3.2V19.89h3.2Z"></path> <path class="cls-1" d="M133,24.87l-4.21,11.2q-1.52,4-4.58,4a5.73,5.73,0,0,1-1.91-.27V37.29a2.71,2.71,0,0,0,1.39.38,1.74,1.74,0,0,0,1.72-1.17l.54-1.28L121.7,24.87h3.55l1.93,6.31a7.56,7.56,0,0,1,.28,1.39h0a9.7,9.7,0,0,1,.34-1.37l1.95-6.33Z"></path> <path class="cls-1" d="M136.13,32.69l-1.49,5.12h-2.49l1-5.12Z"></path> <path class="cls-1" d="M153.06,35.24h-3V33.75h0a3.37,3.37,0,0,1-3.09,1.74,3.23,3.23,0,0,1-2.37-.85,3.07,3.07,0,0,1-.86-2.29q0-3,3.57-3.48l2.81-.37c0-1.14-.61-1.7-1.84-1.7a6.22,6.22,0,0,0-3.52,1.1V25.49a8,8,0,0,1,1.82-.61,10,10,0,0,1,2.11-.26c3,0,4.44,1.48,4.44,4.42Zm-3-4.21v-.7l-1.88.24q-1.56.21-1.56,1.41a1.16,1.16,0,0,0,.38.89,1.43,1.43,0,0,0,1,.35,1.85,1.85,0,0,0,1.46-.62A2.23,2.23,0,0,0,150.05,31Z"></path> <path class="cls-1" d="M165.54,35.24h-3.19V29.35c0-1.52-.56-2.28-1.66-2.28a1.69,1.69,0,0,0-1.38.64,2.44,2.44,0,0,0-.52,1.62v5.91h-3.2V19.89h3.2v6.52h0A3.63,3.63,0,0,1,162,24.62q3.53,0,3.53,4.25Z"></path> <path class="cls-1" d="M173,35.49A5.57,5.57,0,0,1,168.93,34a5.26,5.26,0,0,1-1.48-3.94,5.26,5.26,0,0,1,1.54-4,5.84,5.84,0,0,1,4.16-1.45,5.5,5.5,0,0,1,4,1.45,5.16,5.16,0,0,1,1.47,3.84A5.48,5.48,0,0,1,177.15,34,5.63,5.63,0,0,1,173,35.49Zm.08-8.42a2.14,2.14,0,0,0-1.76.78,3.48,3.48,0,0,0-.62,2.21c0,2,.8,3,2.41,3s2.29-1,2.29-3.07S174.63,27.07,173.08,27.07Z"></path> <path class="cls-1" d="M183.93,35.24h-3.19V19.89h3.19Z"></path> <path class="cls-1" d="M205.71,35.24h-3.3l-6-9.12c-.35-.53-.59-.94-.73-1.21h0a23,23,0,0,1,.08,2.35v8h-3.08V20.72h3.52l5.76,8.84c.26.4.5.79.73,1.18h0a14.37,14.37,0,0,1-.08-2v-8h3.08Z"></path> <path class="cls-1" d="M217.34,35.24h-3V33.75h0a3.37,3.37,0,0,1-3.08,1.74,3.24,3.24,0,0,1-2.38-.85,3.11,3.11,0,0,1-.86-2.29q0-3,3.57-3.48l2.81-.37c0-1.14-.61-1.7-1.84-1.7A6.25,6.25,0,0,0,209,27.9V25.49a8.27,8.27,0,0,1,1.83-.61,9.86,9.86,0,0,1,2.11-.26c3,0,4.43,1.48,4.43,4.42Zm-3-4.21v-.7l-1.88.24q-1.56.21-1.56,1.41a1.16,1.16,0,0,0,.38.89,1.45,1.45,0,0,0,1,.35,1.88,1.88,0,0,0,1.47-.62A2.22,2.22,0,0,0,214.33,31Z"></path> <path class="cls-1" d="M230,34.05a5.86,5.86,0,0,1-1.67,4.47,6.74,6.74,0,0,1-4.84,1.59,7.67,7.67,0,0,1-3.32-.6V36.82a6.4,6.4,0,0,0,3.23.93,3.47,3.47,0,0,0,2.51-.86,3,3,0,0,0,.89-2.32v-.82h0a3.57,3.57,0,0,1-3.23,1.74,3.87,3.87,0,0,1-3.14-1.4,5.64,5.64,0,0,1-1.17-3.74,6.28,6.28,0,0,1,1.3-4.18A4.23,4.23,0,0,1,224,24.62a3.14,3.14,0,0,1,2.83,1.46h0V24.87H230Zm-3.16-3.79v-.82a2.52,2.52,0,0,0-.58-1.68,1.88,1.88,0,0,0-1.51-.69,2,2,0,0,0-1.67.83,3.86,3.86,0,0,0-.61,2.34,3.28,3.28,0,0,0,.58,2.05,1.88,1.88,0,0,0,1.58.75,2,2,0,0,0,1.6-.76A3.14,3.14,0,0,0,226.87,30.26Z"></path> <path class="cls-1" d="M242.57,24.87l-4.21,11.2c-1,2.69-2.54,4-4.57,4a5.75,5.75,0,0,1-1.92-.27V37.29a2.71,2.71,0,0,0,1.39.38A1.73,1.73,0,0,0,235,36.5l.55-1.28-4.21-10.35h3.54l1.93,6.31a8.42,8.42,0,0,1,.29,1.39h0a9.54,9.54,0,0,1,.33-1.37l2-6.33Z"></path> <path class="cls-1" d="M252.77,35.24h-3.2V19.89h3.2Z"></path> <path class="cls-1" d="M264.77,31H258q.17,2.25,2.85,2.25a5.52,5.52,0,0,0,3-.81v2.31a7.89,7.89,0,0,1-3.73.77,4.81,4.81,0,0,1-5.28-5.27,5.57,5.57,0,0,1,1.49-4.09A5,5,0,0,1,260,24.62a4.5,4.5,0,0,1,3.5,1.35,5.14,5.14,0,0,1,1.24,3.65Zm-3-2q0-2.22-1.8-2.22a1.71,1.71,0,0,0-1.33.63A2.89,2.89,0,0,0,258,29Z"></path> <path class="cls-1" d="M276.62,35.24h-3.18V29.35c0-1.52-.56-2.28-1.66-2.28a1.69,1.69,0,0,0-1.38.64,2.45,2.45,0,0,0-.53,1.62v5.91h-3.19V19.89h3.19v6.52h.05a3.63,3.63,0,0,1,3.18-1.79q3.52,0,3.52,4.25Z"></path> <path class="cls-1" d="M288.47,31h-6.76c.1,1.5,1.05,2.25,2.84,2.25a5.52,5.52,0,0,0,3-.81v2.31a7.89,7.89,0,0,1-3.73.77,4.81,4.81,0,0,1-5.28-5.27,5.54,5.54,0,0,1,1.5-4.09,5,5,0,0,1,3.68-1.51A4.54,4.54,0,0,1,287.23,26a5.19,5.19,0,0,1,1.24,3.65Zm-3-2q0-2.22-1.8-2.22a1.72,1.72,0,0,0-1.33.63,3,3,0,0,0-.69,1.59Z"></path> <path class="cls-1" d="M296.63,35.12a4.7,4.7,0,0,1-2.13.37c-2.26,0-3.38-1.17-3.38-3.51V27.23h-1.68V24.87h1.68V22.64l3.18-.91v3.14h2.33v2.36H294.3v4.19q0,1.62,1.29,1.62a2.22,2.22,0,0,0,1-.29Z"></path> <path class="cls-1" d="M297.76,35V32.37a6.41,6.41,0,0,0,1.57.71,5,5,0,0,0,1.48.23,3.07,3.07,0,0,0,1.34-.23.74.74,0,0,0,.49-.71.63.63,0,0,0-.22-.5,2,2,0,0,0-.57-.36,6.73,6.73,0,0,0-.76-.27,8.33,8.33,0,0,1-.8-.27,8.7,8.7,0,0,1-1.09-.5,3,3,0,0,1-.79-.63,2.42,2.42,0,0,1-.49-.82,3.27,3.27,0,0,1-.16-1.1,2.79,2.79,0,0,1,.38-1.5,3,3,0,0,1,1-1,4.41,4.41,0,0,1,1.44-.59,7.32,7.32,0,0,1,1.7-.19,10,10,0,0,1,2.79.42v2.47a5,5,0,0,0-1.3-.54,5.82,5.82,0,0,0-1.36-.17,3.61,3.61,0,0,0-.59.05,2,2,0,0,0-.49.16,1.19,1.19,0,0,0-.34.28.64.64,0,0,0-.12.38.65.65,0,0,0,.19.48,1.44,1.44,0,0,0,.47.35,4.89,4.89,0,0,0,.65.27l.72.23a8.83,8.83,0,0,1,1.15.49,3.62,3.62,0,0,1,.89.62,2.39,2.39,0,0,1,.56.83,3.29,3.29,0,0,1-.2,2.7,3.28,3.28,0,0,1-1.06,1.07,4.74,4.74,0,0,1-1.53.59,8.21,8.21,0,0,1-1.8.19A9.23,9.23,0,0,1,297.76,35Z"></path> <path class="cls-1" d="M315.76,35.24h-9.3V33.91l5.2-6.68H307V24.87h8.74v1.58l-4.93,6.43h5Z"></path> <path class="cls-1" d="M319.53,35.47A1.85,1.85,0,0,1,318.2,35a1.57,1.57,0,0,1-.53-1.19,1.51,1.51,0,0,1,.53-1.19,2,2,0,0,1,1.33-.47,1.91,1.91,0,0,1,1.33.47,1.64,1.64,0,0,1,0,2.39A1.9,1.9,0,0,1,319.53,35.47Zm1.66-14.75-.39,10h-2.59l-.38-10Z"></path> <path class="cls-1" d="M328,20.38l-2,4.49h-2l1.15-4.49Zm4.2,0-1.92,4.49h-2l1.14-4.49Z"></path> </g> </g> </svg> 