<?xml version="1.0" encoding="UTF-8"?> <svg xmlns="http://www.w3.org/2000/svg" viewBox="0 0 1337.78 252.2"> <defs> <style>.cls-1{fill:#fff;}.cls-2{fill:#f16332;}</style> </defs> <title>lancberlet-lablec</title> <g id="Layer_2" data-name="Layer 2"> <g id="Layer_2-2" data-name="Layer 2"> <circle class="cls-1" cx="126.1" cy="126.1" r="126.1"></circle> <path class="cls-2" d="M126.41,191c21.82,0,25.69,15.52,45.4,15.52a35,35,0,0,0,35.05-34.89v-.07h0a35,35,0,0,0-35-35h0c-19.72,0-23.61,15.53-45.4,15.53s-25.68-15.53-45.4-15.53a35,35,0,0,0-1.49,69.95c.5,0,1,0,1.49,0a32.47,32.47,0,0,0,17.32-5C107.28,196.28,113.09,191,126.41,191Zm59.49-33.37a19.74,19.74,0,1,1-27.94,0A19.76,19.76,0,0,1,185.9,157.59ZM61.31,171.53a19.76,19.76,0,0,1,39.52,0v0a19.76,19.76,0,0,1-39.52,0Z"></path> <path class="cls-2" d="M84.55,132.1c7,.69,11.68,2.62,18.07,6.58a37,37,0,0,1-2.09-12.6c0-21.83,15.5-25.69,15.5-45.4a35,35,0,0,0-70,0l0,0c0,19.73,15.52,23.61,15.52,45.4a36.89,36.89,0,0,1-1.92,12.11A40.11,40.11,0,0,1,84.55,132.1ZM61.31,80.71A19.74,19.74,0,0,1,81.05,61h0a19.76,19.76,0,0,1,19.76,19.74h0a19.76,19.76,0,0,1-39.52,0Z"></path> <path class="cls-1" d="M316.44,90.38h28.15v94.15h35.06v21.4H316.44Z"></path> <path class="cls-1" d="M468.7,205.93l-6.42-19.42H420.8l-6.42,19.42h-30L424.58,90.05h34.24l40,115.88ZM460.8,45.28V67.17L421.13,83.8V64.37ZM427.88,165.11H455.2L441.54,124Z"></path> <path class="cls-1" d="M587.87,90.05H616V205.93H587.87L540.79,133v72.92H512.65V90.05h28.14L587.87,163Z"></path> <path class="cls-1" d="M651.16,190.21Q634,173.52,634,147.83t17.2-42.39q17.19-16.69,42.05-16.7a59.4,59.4,0,0,1,34.24,10.2,53.24,53.24,0,0,1,20.9,28.31H714.78q-6.59-12.68-21.07-12.67t-22.8,9q-8.31,9.06-8.31,24.2T670.91,172q8.31,9.06,22.8,9.06t21.07-12.68h33.57q-5.93,18.1-20.9,28.31a59.33,59.33,0,0,1-34.24,10.21Q668.36,206.92,651.16,190.21Z"></path> <path class="cls-1" d="M766.46,90.38h50.2q17.61,0,28.07,8.56t10.45,21.73q0,19.59-22.88,26.5,11.69,1.65,18.6,9.71a28.18,28.18,0,0,1,6.91,18.93q0,13.83-10.12,22t-28.23,8.15h-53Zm28.15,21.4v25H813q6.09,0,9.8-3.13t3.7-9.3q0-6.16-3.7-9.38t-9.8-3.21Zm0,72.75h21.23a13.65,13.65,0,0,0,9.55-3.45q3.78-3.47,3.78-9.55t-3.62-9.71a12.7,12.7,0,0,0-9.38-3.62H794.61Z"></path> <path class="cls-1" d="M947.35,90.05v21.4h-41.8v24.86h36.87V157.7H905.55v26.83h41.8v21.4h-70V90.05ZM891.56,64.37l39.66-19.09V67.17L891.56,83.8Z"></path> <path class="cls-1" d="M999.7,161v44.93H971.55V90.38h45.59q20.08,0,31.28,10.37t11.19,25a36,36,0,0,1-6.09,19.59q-6.09,9.54-19.92,13.5l28.32,47.07H1029L1003,161Zm0-49.22V139.6h17.44q6.42,0,10.13-3.79a13.61,13.61,0,0,0,3.7-10,14,14,0,0,0-3.78-10.12,13.31,13.31,0,0,0-10.05-4Z"></path> <path class="cls-1" d="M1081.5,90.38h28.15v94.15h35.06v21.4H1081.5Z"></path> <path class="cls-1" d="M1230.3,90.05v21.4h-41.81v24.86h36.87V157.7h-36.87v26.83h41.81v21.4h-70V90.05Z"></path> <path class="cls-1" d="M1246.59,111.78V90.38h91.19v21.4h-31.6v94.15H1278V111.78Z"></path> <path class="cls-2" d="M608.06,167.26a19.43,19.43,0,0,1-19-19.85,19.54,19.54,0,0,1,19.42-19h.43c5.33,0,8.58,2.05,11.72,4s5.88,3.7,10.86,3.7,7.85-1.8,10.87-3.7,6.4-4,11.77-4a19.44,19.44,0,0,1,0,38.87c-5.41,0-8.66-2-11.8-4s-5.88-3.71-10.88-3.71-7.52,1.61-10.77,3.65c-.7.44-1.42.89-2.18,1.34a18.12,18.12,0,0,1-9.62,2.75h-.81ZM654.14,140a7.84,7.84,0,1,0,5.55,2.29A7.76,7.76,0,0,0,654.14,140Zm-45.3,0a7.87,7.87,0,0,0-7.85,7.86,7.85,7.85,0,1,0,7.85-7.86v0Z"></path> <path class="cls-1" d="M608.46,130.39h.38c9.83,0,11.77,7.74,22.63,7.74s12.8-7.74,22.64-7.74h0a17.44,17.44,0,0,1,17.43,17.44v0a17.44,17.44,0,0,1-17.43,17.39h0c-9.83,0-11.76-7.74-22.64-7.74-6.64,0-9.53,2.66-14,5.26a16.15,16.15,0,0,1-8.6,2.48h-.77a17.44,17.44,0,0,1,.36-34.87m.38,27.29h0a9.85,9.85,0,0,0,9.84-9.85h0a9.85,9.85,0,0,0-9.85-9.84h0a9.85,9.85,0,0,0,0,19.7m45.3,0a9.86,9.86,0,1,0-9.84-9.88,9.9,9.9,0,0,0,9.84,9.88h0m-45.68-31.31h0a21.44,21.44,0,0,0-.44,42.87h.87a20.21,20.21,0,0,0,10.66-3.06l2.18-1.33c3.21-2,5.34-3.35,9.71-3.35s6.8,1.5,9.81,3.4c3.23,2,6.88,4.34,12.83,4.34a21.44,21.44,0,1,0,0-42.87c-6,0-9.63,2.31-12.86,4.34-3,1.9-5.39,3.4-9.8,3.4s-6.78-1.5-9.79-3.4c-3.22-2-6.87-4.33-12.8-4.34Zm.38,27.29a5.85,5.85,0,0,1-4.14-10,5.85,5.85,0,0,1,10,4.13,5.86,5.86,0,0,1-5.85,5.85Zm45.3,0a5.84,5.84,0,1,1,5.85-5.85,5.84,5.84,0,0,1-5.85,5.85Z"></path> </g> </g> </svg> 