<?xml version="1.0" encoding="UTF-8"?> <svg xmlns="http://www.w3.org/2000/svg" xmlns:xlink="http://www.w3.org/1999/xlink" viewBox="0 0 294.73 100"><defs><style>.cls-1{fill:url(#linear-gradient);}.cls-2{fill:url(#linear-gradient-2);}.cls-3{fill:url(#linear-gradient-3);}.cls-4{fill:url(#linear-gradient-4);}.cls-5{fill:url(#linear-gradient-5);}</style><linearGradient id="linear-gradient" x1="23.52" y1="28.88" x2="92.84" y2="98.19" gradientTransform="matrix(1, 0, 0, -1, 0, 101.42)" gradientUnits="userSpaceOnUse"><stop offset="0" stop-color="#fdcc5f"></stop><stop offset="0.33" stop-color="#e1b34f"></stop><stop offset="0.44" stop-color="#d8ab4a"></stop><stop offset="0.59" stop-color="#bf953c"></stop><stop offset="0.77" stop-color="#9b752b"></stop><stop offset="0.97" stop-color="#6e511a"></stop><stop offset="1" stop-color="#674b17"></stop></linearGradient><linearGradient id="linear-gradient-2" x1="13.66" y1="42.67" x2="64.59" y2="93.6" xlink:href="#linear-gradient"></linearGradient><linearGradient id="linear-gradient-3" x1="19.61" y1="63.73" x2="76.65" y2="120.77" xlink:href="#linear-gradient"></linearGradient><linearGradient id="linear-gradient-4" x1="41.05" y1="61.54" x2="56.39" y2="76.88" xlink:href="#linear-gradient"></linearGradient><linearGradient id="linear-gradient-5" x1="94.55" y1="54.84" x2="294.73" y2="54.84" gradientTransform="matrix(1, 0, 0, -1, 0, 101.42)" gradientUnits="userSpaceOnUse"><stop offset="0" stop-color="#fdcc5f"></stop><stop offset="1" stop-color="#674b17"></stop></linearGradient></defs><title>all-you-can-move-logo</title><g id="Layer_2" data-name="Layer 2"><g id="Layer_1-2" data-name="Layer 1"><polygon class="cls-1" points="29.13 12.02 33.06 18.92 89.19 18.92 46.38 92.46 50.98 100 101.64 12.02 29.13 12.02"></polygon><polygon class="cls-2" points="73.03 24.13 80.9 24.13 43.81 88.89 0 12.11 8.39 12.11 44.11 74.2 73.03 24.13"></polygon><polygon class="cls-3" points="7.45 0 44.53 62.61 48.59 55.4 19.98 7.45 91.52 7.45 96 0 7.45 0"></polygon><polygon class="cls-4" points="35.85 23.83 51.68 50.5 55.71 43.26 47.08 28.58 55.65 23.83 35.85 23.83"></polygon><path class="cls-5" d="M119,20.56h2.06l24.1,51.8h-9.72L119.22,35.63Zm1.52,15.07L104.27,72.36H94.55l24.13-51.8h2.06Zm64.7-14.07L167,51.65V71.36h-8.84V51.59l-18.29-30H150l12.69,22,12.69-22Zm45.38,46.86a32.74,32.74,0,0,1-16.59,4.18c-16.87,0-28.07-11-28.07-25.79,0-14.38,12.11-25.71,26.86-25.71,10.9,0,17.56,4,17.56,4l-3.06,7.51s-6.6-3.27-13.05-3.27c-11.69,0-18.83,7.35-18.83,17.56,0,10,7.66,17.34,18,17.34a32.07,32.07,0,0,0,14.44-3.39Zm64.09,3.21H286.5V43l-15.38,29h-3.06l-15.5-28.55V71.63h-8.09l.79-50h3.91l20.68,36.27L290,21.62h3.9Z"></path></g></g></svg> 